<?xml version="1.0" encoding="UTF-8"?>
<svg xmlns="http://www.w3.org/2000/svg" viewBox="0 0 64 64" width="64" height="64">
  <!-- Simple roller skate icon (stylized) -->
  <rect width="64" height="64" rx="8" fill="#121212" />

  <!-- Boot -->
  <path d="M12 38c0-6 4-10 10-10h18c2 0 4 2 4 4v6c0 4-3 7-7 7H20c-4 0-8-3-8-7z" fill="#1c92b6"/>

  <!-- Collar -->
  <rect x="22" y="22" width="12" height="4" rx="1.5" fill="#0aa5d3" />

  <!-- Laces -->
  <g fill="#ffffff" opacity="0.92">
    <rect x="26" y="26" width="8" height="1.4" rx="0.7" />
    <rect x="26" y="29" width="8" height="1.4" rx="0.7" />
  </g>

  <!-- Plate -->
  <rect x="10" y="46" width="44" height="4" rx="2" fill="#0d0d0d" />

  <!-- Wheels -->
  <g>
    <circle cx="18" cy="54" r="4" fill="#ffffff" opacity="0.95" />
    <circle cx="30" cy="54" r="4" fill="#ffffff" opacity="0.95" />
    <circle cx="42" cy="54" r="4" fill="#ffffff" opacity="0.95" />
    <circle cx="18" cy="54" r="1.8" fill="#0aa5d3" />
    <circle cx="30" cy="54" r="1.8" fill="#0aa5d3" />
    <circle cx="42" cy="54" r="1.8" fill="#0aa5d3" />
  </g>

</svg>
